<svg xmlns="http://www.w3.org/2000/svg" viewBox="0 0 64 64"><g id="_25-Wallet" data-name="25-Wallet"><path d="M63,32v9a2.006,2.006,0,0,1-2,2H47a2.006,2.006,0,0,1-2-2V35a2.006,2.006,0,0,1,2-2H59V30h2A2.006,2.006,0,0,1,63,32ZM52,38a2,2,0,1,0-2,2A2.006,2.006,0,0,0,52,38Z" style="fill:#e03e3e"/><path d="M54.64,1,63,24.78l-4,1.43V20a2.006,2.006,0,0,0-2-2H55.35L52.53,9.98A3.852,3.852,0,0,1,47.6,7.62L18.48,17.96V18H10a4.524,4.524,0,0,1-.74-.06L9,17.22,43.04,5.12Z" style="fill:#36ce94"/><path d="M5.1,13.97a4.987,4.987,0,0,0,4.16,3.97A4.524,4.524,0,0,0,10,18H57a2.006,2.006,0,0,1,2,2V33H47a2.006,2.006,0,0,0-2,2v6a2.006,2.006,0,0,0,2,2H59V54c0,1.21-1.79,3-4,3H41V41a2.006,2.006,0,0,0-2-2H7a2.006,2.006,0,0,0-2,2V57a4,4,0,0,1-4-4V14A6,6,0,0,1,7,8h3.21a5.147,5.147,0,0,0-5.19,4.51A4.717,4.717,0,0,0,5.1,13.97Z" style="fill:#febd55"/><path d="M52.53,9.98,55.35,18H18.48v-.04L47.6,7.62A3.852,3.852,0,0,0,52.53,9.98Z" style="fill:#2fb380"/><circle cx="50" cy="38" r="2" style="fill:#2b2b37"/><path d="M21.62,8,41,1l2,4,.04.12L9,17.22l.26.72A4.987,4.987,0,0,1,5.1,13.97Z" style="fill:#2fb380"/><path d="M21.62,8,5.1,13.97a4.717,4.717,0,0,1-.08-1.46A5.147,5.147,0,0,1,10.21,8H21.62Z" style="fill:#bd6f08"/><path d="M41,57v4a2.006,2.006,0,0,1-2,2H7a2.006,2.006,0,0,1-2-2V48H41Zm-5-1a2,2,0,0,0-4,0,2,2,0,1,0-2,2,2.006,2.006,0,0,0,2-2,2,2,0,0,0,4,0Z" style="fill:#ff6161"/><polygon points="41 45 41 48 40 48 6 48 5 48 5 45 6 45 40 45 41 45" style="fill:#edf4fa"/><path d="M41,41v4H5V41a2.006,2.006,0,0,1,2-2H39A2.006,2.006,0,0,1,41,41Z" style="fill:#cb3541"/><circle cx="34" cy="56" r="2" style="fill:#a81e29"/><circle cx="30" cy="56" r="2" style="fill:#edf4fa"/><path d="M39,60H28A17.992,17.992,0,0,1,11.046,48H5V61a2.006,2.006,0,0,0,2,2H39a2.006,2.006,0,0,0,2-2V58A2,2,0,0,1,39,60Z" style="fill:#e03e3e"/><path d="M11.046,48a17.872,17.872,0,0,1-.776-3H5v3h6.046Z" style="fill:#c1cfe8"/><path d="M10.27,45A18.09,18.09,0,0,1,10,42V39H7a2.006,2.006,0,0,0-2,2v4h5.27Z" style="fill:#a81e29"/><path d="M43,5l-.812-1.624L11.818,14.343a2,2,0,0,1-2.536-1.138l-.261-.652L5.1,13.97a4.987,4.987,0,0,0,4.16,3.97L9,17.22,43.04,5.12Z" style="fill:#2aa173"/><path d="M26.816,15H15.245L9,17.22l.26.72A4.524,4.524,0,0,0,10,18h8.48v-.04Z" style="fill:#2fb380"/><path d="M63,24.78,59.562,15H54.3l1.055,3H57a2.006,2.006,0,0,1,2,2v6.21Z" style="fill:#2fb380"/><polygon points="26.816 15 18.48 17.96 18.48 18 55.35 18 54.295 15 26.816 15" style="fill:#2aa173"/><path d="M62,41H52a2.98,2.98,0,0,1-2.242-1.025,1.988,1.988,0,0,1,0-3.95A2.98,2.98,0,0,1,52,35h7a2,2,0,0,0,2-2V30H59v3H47a2.006,2.006,0,0,0-2,2v6a2.006,2.006,0,0,0,2,2H61a2.006,2.006,0,0,0,2-2V40A1,1,0,0,1,62,41Z" style="fill:#cb3541"/><path d="M48,46H59V43H47a1.975,1.975,0,0,1-1-.279V44A2,2,0,0,0,48,46Z" style="fill:#fc9e20"/><path d="M5,45V41a2.006,2.006,0,0,1,2-2H9V17.88a4.976,4.976,0,0,1-3.9-3.91,4.717,4.717,0,0,1-.08-1.46A5.147,5.147,0,0,1,10.21,8H7a6,6,0,0,0-6,6V53a4,4,0,0,0,4,4V45Z" style="fill:#fc9e20"/><path d="M56,53H48a4,4,0,0,1-4-4V44a2,2,0,0,0-2-2H41V57H55c2.21,0,4-1.79,4-3V50A3,3,0,0,1,56,53Z" style="fill:#fc9e20"/><rect x="44" y="56" width="2" height="2"/><path d="M61,29H60V26.912l3.335-1.185a1,1,0,0,0,.608-1.275L55.579.668A1,1,0,0,0,54.3.058L43.556,3.875,41.9.553A1,1,0,0,0,40.66.06L6.026,12.566A4.151,4.151,0,0,1,10.215,9H14V7H7a7.008,7.008,0,0,0-7,7V53a5.009,5.009,0,0,0,4,4.9V61a3,3,0,0,0,3,3H39a3,3,0,0,0,3-3V41a3,3,0,0,0-3-3H7a3,3,0,0,0-3,3V55.816A3,3,0,0,1,2,53V14A4.993,4.993,0,0,1,5.324,9.31a5.762,5.762,0,0,0-1.3,3.1A6,6,0,0,0,10,19H57a1,1,0,0,1,1,1V32H47a3,3,0,0,0-3,3v6a3,3,0,0,0,3,3H58V54c0,.6-1.267,2-3,2H48v2h7c2.693,0,5-2.2,5-4V44h1a3,3,0,0,0,3-3V32A3,3,0,0,0,61,29ZM6,41a1,1,0,0,1,1-1H39a1,1,0,0,1,1,1v3H6Zm0,5H40v1H6Zm0,3H40V61a1,1,0,0,1-1,1H7a1,1,0,0,1-1-1ZM24.178,17,47.087,8.86a4.866,4.866,0,0,0,4.8,2.3L53.937,17ZM57,17h-.943L53.472,9.649a1,1,0,0,0-1.279-.61,2.823,2.823,0,0,1-2.177-.113,2.856,2.856,0,0,1-1.472-1.642,1,1,0,0,0-.512-.57,1.007,1.007,0,0,0-.766-.04L18.2,17h-5.61l2.976-1.058-.67-1.884L8.665,16.273a.97.97,0,0,0-.416.308,3.769,3.769,0,0,1-1.905-2L40.5,2.242,41.657,4.55,20.528,12.058l.67,1.884L54.025,2.278l7.7,21.9L60,24.789V20A3,3,0,0,0,57,17Zm5,24a1,1,0,0,1-1,1H47a1,1,0,0,1-1-1V35a1,1,0,0,1,1-1H59a1,1,0,0,0,1-1V31h1a1,1,0,0,1,1,1Z"/><path d="M50,35a3,3,0,1,0,3,3A3,3,0,0,0,50,35Zm0,4a1,1,0,1,1,1-1A1,1,0,0,1,50,39Z"/><rect x="16.939" y="13.017" width="2.122" height="2" transform="translate(-3.655 6.838) rotate(-19.567)"/><path d="M30,59a2.981,2.981,0,0,0,2-.78,3,3,0,1,0,0-4.44A3,3,0,1,0,30,59Zm4-4a1,1,0,1,1-1,1A1,1,0,0,1,34,55Zm-4,0a1,1,0,1,1-1,1A1,1,0,0,1,30,55Z"/></g></svg>